<svg xmlns="http://www.w3.org/2000/svg" viewBox="0 9.399999618530273 654.5999755859375 36.349998474121094" data-asc="0.9" width="654.5999755859375" height="36.349998474121094"><defs/><g fill="#6f1d8a"><g transform="translate(0, 0)"><path d="M0 45L0 10.20L12.95 10.20Q16.75 10.20 19.98 12.10Q23.20 14 25.10 17.22Q27 20.45 27 24.25L27 30.95Q27 34.75 25.10 37.98Q23.20 41.20 19.98 43.10Q16.75 45 12.95 45L0 45ZM49.50 9.45Q53.40 9.45 56.70 11.38Q60 13.30 61.92 16.60Q63.85 19.90 63.85 23.80L63.85 31.40Q63.85 35.30 61.92 38.60Q60 41.90 56.70 43.83Q53.40 45.75 49.50 45.75Q45.60 45.75 42.30 43.83Q39 41.90 37.08 38.60Q35.15 35.30 35.15 31.40L35.15 23.80Q35.15 19.90 37.08 16.60Q39 13.30 42.30 11.38Q45.60 9.45 49.50 9.45M37 31.40Q37 34.80 38.67 37.67Q40.35 40.55 43.23 42.23Q46.10 43.90 49.50 43.90Q52.90 43.90 55.78 42.23Q58.65 40.55 60.33 37.67Q62 34.80 62 31.40L62 23.80Q62 20.40 60.33 17.52Q58.65 14.65 55.78 12.98Q52.90 11.30 49.50 11.30Q46.10 11.30 43.23 12.98Q40.35 14.65 38.67 17.52Q37 20.40 37 23.80L37 31.40ZM74.30 45L72.45 45L72.45 10.20L74.45 10.20L86.60 31.65L98.70 10.20L100.55 10.20L100.55 45L98.70 45L98.70 13.90L87.45 33.75L85.70 33.75L74.30 13.65L74.30 45ZM122.55 10.20L124.50 10.20L138.80 45L136.80 45L132.10 33.50L114.95 33.50L110.20 45L108.25 45L122.55 10.20M115.70 31.70L131.35 31.70L123.50 12.60L115.70 31.70ZM171.80 10.20L171.80 12.05L161.40 12.05L161.40 43.15L171.80 43.15L171.80 45L149.25 45L149.25 43.15L159.60 43.15L159.60 12.05L149.25 12.05L149.25 10.20L171.80 10.20ZM183.90 45L183.90 10.20L185.85 10.20L210.15 33.80L210.15 10.20L212 10.20L212 45L210.15 45L210.15 36.40L185.75 12.60L185.75 45L183.90 45ZM225.90 28.65L225.90 26.80L243.10 26.80L243.10 28.65L225.90 28.65ZM285.30 10.20L285.30 12.05L261.35 12.05L261.35 23.20L280.55 23.20L280.55 32L261.35 32L261.35 45L259.50 45L259.50 10.20L285.30 10.20ZM319.80 10.20L319.80 12.05L309.40 12.05L309.40 43.15L319.80 43.15L319.80 45L297.25 45L297.25 43.15L307.60 43.15L307.60 12.05L297.25 12.05L297.25 10.20L319.80 10.20ZM353.05 11.35Q356.05 12.75 357.77 15.50Q359.50 18.25 359.50 21.60Q359.50 25.50 357.13 28.57Q354.75 31.65 351.05 32.65L359.90 45L357.70 45L349.15 33L347.55 33.05L335 33.05L335 45L333.15 45L333.15 10.20L346.40 10.20Q348.60 10.20 350.18 10.48Q351.75 10.75 353.05 11.35M348.05 31.20Q350.65 31.20 352.85 29.90Q355.05 28.60 356.35 26.40Q357.65 24.20 357.65 21.60Q357.65 18.70 356.13 16.35Q354.60 14 351.90 12.85Q349.95 12.05 346.40 12.05L335 12.05L335 31.20L348.05 31.20ZM383.25 28.35Q379 27.50 376.32 26.47Q373.65 25.45 372.13 23.67Q370.60 21.90 370.60 19.10Q370.60 16.20 372.13 14Q373.65 11.80 376.43 10.60Q379.20 9.40 382.85 9.40Q386.35 9.40 389.27 10.88Q392.20 12.35 393.90 15Q395.60 17.65 395.60 21.05L393.75 21.05Q393.75 18.10 392.30 15.85Q390.85 13.60 388.35 12.38Q385.85 11.15 382.80 11.15Q380.10 11.15 377.75 12Q375.40 12.85 373.93 14.60Q372.45 16.35 372.45 19Q372.45 21.40 373.85 22.82Q375.25 24.25 377.50 25Q379.75 25.75 383.80 26.60Q387.90 27.45 390.18 28.22Q392.45 29 394.02 30.80Q395.60 32.60 395.60 35.85Q395.60 39.10 393.88 41.33Q392.15 43.55 389.30 44.65Q386.45 45.75 383.10 45.75Q378.95 45.75 375.80 44.20Q372.65 42.65 370.98 39.83Q369.30 37 369.30 33.35L371.15 33.35Q371.15 36.55 372.57 38.95Q374 41.35 376.70 42.67Q379.40 44 383.10 44Q387.70 44 390.73 41.80Q393.75 39.60 393.75 35.80Q393.75 33.20 392.45 31.80Q391.15 30.40 389.18 29.77Q387.20 29.15 383.25 28.35ZM433.55 10.20L433.55 12.05L420.40 12.05L420.40 45L418.60 45L418.60 12.05L405.45 12.05L405.45 10.20L433.55 10.20ZM492.60 45L492.60 19L479.45 19L479.45 10.20L507.55 10.20L507.55 19L494.40 19L494.40 45L492.60 45ZM518.20 10.20L530.55 28.80L542.80 10.20L545 10.20L531.45 30.75L531.45 45L529.60 45L529.60 30.75L516 10.20L518.20 10.20ZM557.80 45L555.95 45L555.95 10.20L569.95 10.20Q573.45 10.20 576.42 11.70Q579.40 13.20 581.15 15.95Q582.90 18.70 582.90 22.30Q582.90 25.75 581.13 28.65Q579.35 31.55 576.30 33.10Q573.65 34.45 569.95 34.45L557.80 34.45L557.80 45M557.80 32.60L569.95 32.60Q573.15 32.60 575.20 31.60Q577.85 30.35 579.45 27.85Q581.05 25.35 581.05 22.30Q581.05 19.30 579.45 16.80Q577.85 14.30 575.15 13.05Q573.10 12.05 569.95 12.05L557.80 12.05L557.80 32.60ZM592.50 10.20L617 10.20L617 12.05L594.35 12.05L594.35 26.15L614.05 26.15L614.05 28L594.35 28L594.35 43.15L617 43.15L617 45L592.50 45L592.50 10.20ZM642.25 28.35Q638 27.50 635.33 26.47Q632.65 25.45 631.13 23.67Q629.60 21.90 629.60 19.10Q629.60 16.20 631.13 14Q632.65 11.80 635.42 10.60Q638.20 9.40 641.85 9.40Q645.35 9.40 648.27 10.88Q651.20 12.35 652.90 15Q654.60 17.65 654.60 21.05L652.75 21.05Q652.75 18.10 651.30 15.85Q649.85 13.60 647.35 12.38Q644.85 11.15 641.80 11.15Q639.10 11.15 636.75 12Q634.40 12.85 632.92 14.60Q631.45 16.35 631.45 19Q631.45 21.40 632.85 22.82Q634.25 24.25 636.50 25Q638.75 25.75 642.80 26.60Q646.90 27.45 649.17 28.22Q651.45 29 653.02 30.80Q654.60 32.60 654.60 35.85Q654.60 39.10 652.88 41.33Q651.15 43.55 648.30 44.65Q645.45 45.75 642.10 45.75Q637.95 45.75 634.80 44.20Q631.65 42.65 629.98 39.83Q628.30 37 628.30 33.35L630.15 33.35Q630.15 36.55 631.58 38.95Q633 41.35 635.70 42.67Q638.40 44 642.10 44Q646.70 44 649.73 41.80Q652.75 39.60 652.75 35.80Q652.75 33.20 651.45 31.80Q650.15 30.40 648.17 29.77Q646.20 29.15 642.25 28.35Z"/></g></g></svg>
